<?xml version="1.0" encoding="utf-8"?>
<!-- Generator: Adobe Illustrator 23.0.3, SVG Export Plug-In . SVG Version: 6.00 Build 0)  -->
<svg version="1.1" id="Calque_1" xmlns="http://www.w3.org/2000/svg" xmlns:xlink="http://www.w3.org/1999/xlink" x="0px" y="0px"
	 viewBox="0 0 156.3 113.5" style="enable-background:new 0 0 156.3 113.5;" xml:space="preserve">
<style type="text/css">
	.st0{fill:#D91A32;}
</style>
<g>
	<polygon class="st0" points="124.3,101.7 124.3,108.8 23.4,108.8 23.4,101.7 18.7,101.7 18.7,113.5 129,113.5 129,101.7 	"/>
	<polygon class="st0" points="23.4,11.7 23.4,4.7 124.3,4.7 124.3,11.7 129,11.7 129,0 18.7,0 18.7,11.7 	"/>
	<path class="st0" d="M52.5,47c0,7-5,12.1-11.7,12.1C34,59.1,29.1,54,29.1,47c0-7,4.9-12.2,11.7-12.2C47.5,34.8,52.5,40,52.5,47
		 M31.5,47c0,5.7,3.9,9.9,9.3,9.9c5.4,0,9.3-4.2,9.3-9.9c0-5.7-3.9-9.9-9.3-9.9C35.4,37.1,31.5,41.2,31.5,47 M90.2,58.7h-2.4V35.2
		h2.4V58.7z M75.9,58.7h2.9L72.7,49c3-0.9,5-3.2,5-6.7c0-4.6-3.5-7.1-8.3-7.1h-7v23.5h2.4v-5.2v-4v-2.2V45v-7.7h4.4c3.6,0,6,1.7,6,5
		c0,3.3-2.3,5-6,5h-0.5l3.4,5.4L75.9,58.7z M110.7,35.2h-0.5L99.9,58.7h2.6l2.4-5.5h11.3l2.4,5.5h2.6L110.7,35.2z M115.2,51h-9.4
		l4.7-10.8l3.6,8.3L115.2,51z M114.1,48.5l1.1,2.5L114.1,48.5z M110.5,40.2L105.8,51L110.5,40.2z M146.5,35.2h-2.4v17.7l-14.7-17.7
		h-0.5v23.5h2.4V40.9L146,58.7h0.5V35.2z M18.2,54.1c-1.6,1.6-3.8,2.7-6.5,2.7c-0.2,0-0.5,0-0.7,0c-2.7-0.2-5-1.4-6.5-3.4
		c-1.3-1.7-2.1-3.9-2.1-6.5l0,0c0,0,0,0,0,0c0-2.6,0.8-4.8,2.1-6.5c1.5-2,3.8-3.2,6.5-3.4c0.2,0,0.5,0,0.7,0c2.7,0,4.9,1.1,6.5,2.7
		c0.1,0.1,0.2,0.2,0.3,0.3l1.5-1.8c-0.1-0.1-0.1-0.1-0.2-0.2c-2.1-2.2-4.9-3.3-8.2-3.3c-0.2,0-0.5,0-0.7,0c-3.4,0.2-6.2,1.6-8.2,4
		C1,40.9,0,43.7,0,46.9c0,0,0,0,0,0l0,0c0,3.2,1,6.1,2.8,8.2c2,2.3,4.8,3.8,8.2,4c0.2,0,0.5,0,0.7,0c3.4,0,6-1.2,8.2-3.3
		c0,0,0,0,0.1-0.1L18.4,54C18.3,54,18.3,54.1,18.2,54.1"/>
	<path class="st0" d="M152.5,37.5c0.6,0,1,0.3,1,0.8c0,0.5-0.4,0.8-1,0.8h-0.7v-1.5H152.5z M151.1,36.9v4.4h0.7v-1.6h0.8l1,1.6h0.8
		l-1.1-1.7c0.5-0.2,0.9-0.6,0.9-1.3c0-0.9-0.7-1.4-1.6-1.4H151.1z M152.6,35.8c1.8,0,3.1,1.4,3.1,3.3c0,1.9-1.3,3.3-3.1,3.3
		c-1.8,0-3.1-1.4-3.1-3.3C149.5,37.2,150.8,35.8,152.6,35.8 M152.6,35.2c-2.2,0-3.8,1.7-3.8,3.9c0,2.3,1.6,3.9,3.8,3.9
		c2.2,0,3.8-1.6,3.8-3.9C156.3,36.9,154.7,35.2,152.6,35.2"/>
	<g>
		<path class="st0" d="M5.3,71.2l-0.5,0.9c-0.5-0.4-1.2-0.7-2-0.7c-0.8,0-1.5,0.4-1.5,1.2c0,0.7,0.4,1,1.7,1.2
			c1.9,0.4,2.5,1,2.5,2.2c0,1.4-1,2.3-2.7,2.3c-1.1,0-2.1-0.4-2.8-1l0.6-0.9C1.2,77,2,77.3,2.8,77.3c1,0,1.6-0.4,1.6-1.3
			c0-0.7-0.5-1-1.8-1.3c-1.9-0.4-2.4-1-2.4-2.2c0-1.3,1-2.2,2.5-2.2C3.8,70.4,4.7,70.7,5.3,71.2z"/>
		<path class="st0" d="M19.7,74.3c0,2.3-1.6,3.9-3.8,3.9c-2.2,0-3.8-1.7-3.8-3.9c0-2.3,1.6-3.9,3.8-3.9C18,70.4,19.7,72.1,19.7,74.3
			z M13.1,74.3c0,1.7,1.2,3,2.8,3c1.6,0,2.8-1.2,2.8-3c0-1.7-1.2-3-2.8-3C14.2,71.4,13.1,72.6,13.1,74.3z"/>
		<path class="st0" d="M27.7,77.2h3.6v0.9h-4.7v-7.6h1.1V77.2z"/>
		<path class="st0" d="M39.2,78.1h-1.1v-7.6h1.1V78.1z"/>
		<path class="st0" d="M53,74.3c0,2.4-1.5,3.8-4.1,3.8h-2.3v-7.6h2.3C51.5,70.5,53,71.9,53,74.3z M47.7,71.5v5.7h1.2
			c2,0,3.1-1,3.1-2.8c0-1.8-1.1-2.8-3.1-2.8H47.7z"/>
		<path class="st0" d="M73,71.2l-0.5,0.9c-0.5-0.4-1.2-0.7-2-0.7c-0.8,0-1.5,0.4-1.5,1.2c0,0.7,0.4,1,1.7,1.2c1.9,0.4,2.5,1,2.5,2.2
			c0,1.4-1,2.3-2.7,2.3c-1.1,0-2.1-0.4-2.8-1l0.6-0.9c0.5,0.5,1.4,0.9,2.2,0.9c1,0,1.6-0.4,1.6-1.3c0-0.7-0.5-1-1.8-1.3
			c-1.9-0.4-2.4-1-2.4-2.2c0-1.3,1-2.2,2.5-2.2C71.4,70.4,72.3,70.7,73,71.2z"/>
		<path class="st0" d="M85.7,75.4c0,1.7-1,2.8-2.8,2.8c-1.9,0-2.8-1.1-2.8-2.8v-4.9h1.1v4.9c0,1.2,0.6,1.9,1.8,1.9
			c1.2,0,1.8-0.8,1.8-1.9v-4.9h1.1V75.4z"/>
		<path class="st0" d="M97.4,78.1l-1.8-2.9h0h-1.5v2.9h-1.1v-7.6h2.5c1.5,0,2.7,0.8,2.7,2.4c0,1.1-0.6,1.9-1.5,2.2l1.9,3.1H97.4z
			 M94.1,74.3h1.4c1,0,1.7-0.5,1.7-1.4c0-0.9-0.7-1.4-1.7-1.4h-1.4V74.3z"/>
		<path class="st0" d="M110,71.5h-3.5v2.4h3v1h-3v3.3h-1.1v-7.6h4.6V71.5z"/>
		<path class="st0" d="M122.3,78.1h-1.1l-0.7-1.6h-3.4l-0.7,1.6h-1.1l3.5-7.8h0L122.3,78.1z M117.5,75.7h2.6l-1.3-2.9L117.5,75.7z"
			/>
		<path class="st0" d="M134.9,71.5l-0.7,0.8c-0.5-0.5-1.2-0.9-2.1-0.9c-1.6,0-2.7,1.3-2.7,3c0,1.7,1.1,3,2.7,3c0.9,0,1.6-0.4,2.1-1
			l0.7,0.8c-0.7,0.8-1.6,1.1-2.8,1.1c-2.2,0-3.8-1.7-3.8-3.9c0-2.3,1.6-3.9,3.8-3.9C133.3,70.4,134.2,70.8,134.9,71.5z"/>
		<path class="st0" d="M146.4,71.5h-3.7v2.3h3.2v0.9h-3.2v2.4h3.7v1h-4.8v-7.6h4.7V71.5z"/>
	</g>
</g>
</svg>
